<mxfile host="app.diagrams.net" modified="2024-07-16T09:18:11.222Z" agent="Mozilla/5.0 (Macintosh; Intel Mac OS X 10.15; rv:127.0) Gecko/20100101 Firefox/127.0" etag="hVD37nEjqif49TKQfkLc" version="24.6.5" type="github">
  <diagram name="Rough Work" id="Z0RLh-x2iGoPqDhNkfDR">
    <mxGraphModel dx="2074" dy="1182" grid="1" gridSize="10" guides="1" tooltips="1" connect="1" arrows="1" fold="1" page="1" pageScale="1" pageWidth="1100" pageHeight="850" math="0" shadow="0">
      <root>
        <mxCell id="0" />
        <mxCell id="1" parent="0" />
      </root>
    </mxGraphModel>
  </diagram>
</mxfile>
